<svg xmlns="http://www.w3.org/2000/svg" width="334.989" height="53.938" viewBox="0 0 334.989 53.938">
  <g id="Академията" transform="translate(-138.6 -252.175)">
    <path id="Path_69790" data-name="Path 69790" d="M268.1,291.822l1.9-.831c.949-.415,1.246-1.246,1.246-2.492V268.568c0-1.246-.3-2.076-1.246-2.492l-1.9-.831.237-1.246h11.627l.237,1.246-1.9.831c-.949.415-1.246,1.246-1.246,2.492V288.5c0,1.246.3,2.076,1.246,2.492l1.9.831-.237,1.246H268.337Z" transform="translate(-52.679 -4.81)" fill="#257d9e"/>
    <path id="Path_69791" data-name="Path 69791" d="M300.427,291.781l1.9-.831c.949-.415,1.246-1.246,1.246-2.492V265.383h-3.144l-4.983,7.712-1.068.237-2.076-8.6.237-.831h27.881l.237.831-2.076,8.542-1.068-.237-4.983-7.712h-3.144v23.135c0,1.246.3,2.076,1.246,2.492l1.9.831-.237,1.246H300.605Z" transform="translate(-62.523 -4.77)" fill="#257d9e"/>
    <path id="Path_69792" data-name="Path 69792" d="M354.9,291.537l1.9-.831a4.594,4.594,0,0,0,1.9-2.492l7.712-19.161-1.305-2.847v-.415l4.983-2.492h.415l11.212,24.974a4.717,4.717,0,0,0,2.314,2.492l1.9.831-.237,1.246H371.747l-.237-1.246,2.907-.831a1.182,1.182,0,0,0,.89-1.305,3.168,3.168,0,0,0-.3-1.186l-1.78-3.975h-10.8l-1.6,3.975a2.751,2.751,0,0,0-.237,1.127,1.291,1.291,0,0,0,1.068,1.364l2.907.831-.237,1.246h-9.195Zm17.678-8.958-5.042-11.034-4.39,11.034Z" transform="translate(-87.988 -4.525)" fill="#257d9e"/>
    <path id="Path_69793" data-name="Path 69793" d="M409.3,290.9l1.661-.83a2.21,2.21,0,0,0,1.246-2.314V268.419l-2.729-2.314v-.653l7.475-4.152h.653v26.4a2.258,2.258,0,0,0,1.246,2.314l1.483.831-.237,1.068H409.478Zm9.373-10.8,7.059-5.4a1.32,1.32,0,0,0,.593-.89c0-.356-.356-.771-1.008-1.008l-1.661-.653.237-1.068H432.2l.237,1.068-9.135,6.466,5.22,8.542a8.418,8.418,0,0,0,3.559,2.907l1.661.83-.3,1.068h-8.186l-6.644-11.034V280.1Z" transform="translate(-110.117 -3.712)" fill="#257d9e"/>
    <path id="Path_69794" data-name="Path 69794" d="M465.632,296.379l-.653.356a13.351,13.351,0,0,1-6.466,2.076c-3.322,0-5.813-2.076-5.813-4.983,0-3.559,4.152-5.161,10.2-7.475l2.729-1.068c0-2.907-.653-6.644-4.8-6.881l-3.737,7.474-.653.237-3.322-4.805,2.491-1.9a11.56,11.56,0,0,1,7.059-2.314c3.559,0,8.305,1.483,8.305,6.644v10.678l2.907,2.076-.237.653-7.475,1.661h-.653v-2.432Zm0-9.61-1.661.653c-3.263,1.246-5.4,2.729-5.4,5.4,0,2.314,1.483,3.737,3.144,3.737a6.568,6.568,0,0,0,3.144-1.068l.831-.534-.059-8.186Z" transform="translate(-127.771 -10.139)" fill="#257d9e"/>
    <path id="Path_69795" data-name="Path 69795" d="M508.491,278.632l3.263-2.432h.653v21.83c0,6.229-2.729,9.788-9.373,9.788a13.669,13.669,0,0,1-8.3-2.729l-1.9-1.246,4.153-3.737.415.237,5.813,6.229c3.322-.415,3.737-3.975,3.737-8.958v-2.136a7.251,7.251,0,0,1-5.814,2.966c-4.983,0-9.135-4.153-9.135-10.2,0-7.059,4.39-11.449,10.8-11.449A8.981,8.981,0,0,1,508.491,278.632Zm-1.542,2.314a6.443,6.443,0,0,0-4.983-2.669c-3.737,0-4.39,5.22-4.39,8.127,0,5.042,2.076,9.788,5.636,9.788a4.734,4.734,0,0,0,3.737-2.373Z" transform="translate(-143.758 -9.773)" fill="#257d9e"/>
    <path id="Path_69796" data-name="Path 69796" d="M533.4,288.512c0-7.3,5.4-11.212,10.8-11.212,3.975,0,8.127,2.076,8.127,8.958h-13.7c.178,3.5,1.483,8.127,6.466,8.127,2.729,0,4.8-1.483,6.466-4.805l.83.237c-1.068,4.449-3.559,9.135-9.551,9.135C538.976,298.893,533.4,296.164,533.4,288.512Zm5.1-3.737h8.3c-.237-2.907-.83-6.229-3.737-6.229C540.222,278.486,538.739,281.156,538.5,284.775Z" transform="translate(-160.599 -10.22)" fill="#257d9e"/>
    <path id="Path_69797" data-name="Path 69797" d="M573.327,285.059v9.551a2.21,2.21,0,0,0,1.246,2.314l1.661.831L576,298.822h-7.119l-.178-1.068,1.661-.831a2.21,2.21,0,0,0,1.246-2.314V282.152l-1.9-3.322V278h5.636l7.474,13.941L588.869,278H597l.237,1.068-1.661.83a2.21,2.21,0,0,0-1.246,2.314v12.458a2.21,2.21,0,0,0,1.246,2.314l1.661.831L597,298.881H586.378l-.237-1.068,1.483-.831a2.21,2.21,0,0,0,1.246-2.314V282.39l-7.3,16.907h-.415Z" transform="translate(-174.958 -10.505)" fill="#257d9e"/>
    <path id="Path_69798" data-name="Path 69798" d="M637.585,295.115l-1.483,1.246a9.328,9.328,0,0,1-6.229,2.492c-5.042,0-6.288-3.025-6.466-6.644V281.59l-2.907-2.076.237-.653,7.474-1.661h.653v12.695c0,5.22,1.246,6.466,3.559,6.466a5.394,5.394,0,0,0,3.737-1.661l1.483-1.246V281.59l-2.907-2.076.237-.653,7.474-1.661h.653v17.263l2.907,2.076-.237.653-7.474,1.661h-.653l-.059-3.737Z" transform="translate(-196.029 -10.18)" fill="#257d9e"/>
    <path id="Path_69799" data-name="Path 69799" d="M687.842,279.008l-1.661.831a2.21,2.21,0,0,0-1.246,2.314V294.61a2.21,2.21,0,0,0,1.246,2.314l1.661.831-.237,1.068H676.986l-.237-1.068,1.483-.831a2.21,2.21,0,0,0,1.246-2.314V279.246h-1.246c-3.144,0-4.983,1.483-4.983,4.568,0,2.907,1.661,4.805,4.983,4.983v1.246c-.356,0-.712.059-1.068.059l-4.746,8.72h-6.881l-.237-1.068,1.661-.83c1.127-.593,1.6-1.127,2.729-2.907l2.729-4.449c-2.551-.712-4.568-2.314-4.568-5.339,0-4.805,5.4-6.229,10.2-6.229H687.6Z" transform="translate(-214.253 -10.505)" fill="#257d9e"/>
    <path id="Path_69800" data-name="Path 69800" d="M533.4,327.886a4.65,4.65,0,0,1,4.805-4.686,4.56,4.56,0,0,1,3.381,1.305l-.593.593a3.636,3.636,0,0,0-2.669-1.127,3.8,3.8,0,1,0,0,7.593,3.456,3.456,0,0,0,2.669-1.127l.593.593a4.512,4.512,0,0,1-3.381,1.364A4.377,4.377,0,0,1,533.4,327.886Z" transform="translate(-160.599 -28.892)" fill="#257d9e"/>
    <path id="Path_69801" data-name="Path 69801" d="M562.068,330.141v3.975h-.89V330.2a1.925,1.925,0,0,0-2.017-2.195,2.246,2.246,0,0,0-2.373,2.492v3.678h-.949V330.26a1.925,1.925,0,0,0-2.017-2.195,2.275,2.275,0,0,0-2.373,2.492v3.678H550.5v-6.881h.89V328.6a2.763,2.763,0,0,1,2.551-1.305,2.5,2.5,0,0,1,2.491,1.424,3.061,3.061,0,0,1,2.788-1.424C560.941,327.175,562.068,328.183,562.068,330.141Z" transform="translate(-167.555 -30.553)" fill="#257d9e"/>
    <path id="Path_69802" data-name="Path 69802" d="M579.513,329.769v4.271h-.89v-1.127a2.618,2.618,0,0,1-2.373,1.186c-1.6,0-2.551-.831-2.551-2.017,0-1.008.712-1.958,2.669-1.958h2.195v-.415c0-1.186-.712-1.78-1.958-1.78a3.482,3.482,0,0,0-2.254.831l-.415-.712a4.446,4.446,0,0,1,2.847-.949A2.452,2.452,0,0,1,579.513,329.769Zm-.949,2.195v-1.127h-2.136c-1.3,0-1.78.534-1.78,1.246,0,.83.593,1.305,1.72,1.305A2.125,2.125,0,0,0,578.564,331.964Z" transform="translate(-176.992 -30.478)" fill="#257d9e"/>
    <path id="Path_69803" data-name="Path 69803" d="M595.2,330.6a3.317,3.317,0,0,1-3.441,3.5,2.917,2.917,0,0,1-2.61-1.364v3.856H588.2v-9.432h.89v1.364a3.065,3.065,0,0,1,2.67-1.424A3.317,3.317,0,0,1,595.2,330.6Zm-.949,0a2.526,2.526,0,0,0-2.551-2.669,2.561,2.561,0,0,0-2.551,2.669,2.526,2.526,0,0,0,2.551,2.669A2.493,2.493,0,0,0,594.251,330.6Z" transform="translate(-182.89 -30.478)" fill="#257d9e"/>
    <path id="Path_69804" data-name="Path 69804" d="M608.573,329.769v4.271h-.949v-1.127a2.618,2.618,0,0,1-2.373,1.186c-1.6,0-2.551-.831-2.551-2.017,0-1.008.712-1.958,2.669-1.958h2.195v-.415c0-1.186-.712-1.78-1.958-1.78a3.482,3.482,0,0,0-2.254.831l-.415-.712a4.446,4.446,0,0,1,2.847-.949C607.564,327.1,608.573,327.99,608.573,329.769Zm-.949,2.195v-1.127h-2.136c-1.305,0-1.78.534-1.78,1.246,0,.83.593,1.305,1.72,1.305A2.039,2.039,0,0,0,607.624,331.964Z" transform="translate(-188.789 -30.478)" fill="#257d9e"/>
    <path id="Path_69805" data-name="Path 69805" d="M629.259,329.781c0,1.661-1.72,2.61-3.678,2.61a5.125,5.125,0,0,1-3.381-1.186l.356-.712a4.61,4.61,0,0,0,2.966,1.008c1.424,0,2.788-.712,2.788-1.958,0-1.127-.89-1.661-2.432-1.661h-2.017v-.771h1.958c1.305,0,2.076-.534,2.076-1.6,0-1.127-1.127-1.72-2.432-1.72a4.438,4.438,0,0,0-2.61.771l-.356-.831a6.24,6.24,0,0,1,2.966-.83c1.839,0,3.381.89,3.381,2.492a2.018,2.018,0,0,1-1.542,2.017A2.541,2.541,0,0,1,629.259,329.781Z" transform="translate(-196.721 -28.77)" fill="#257d9e"/>
    <path id="Path_69806" data-name="Path 69806" d="M643.113,329.769v4.271h-.89v-1.127a2.618,2.618,0,0,1-2.373,1.186c-1.6,0-2.551-.831-2.551-2.017,0-1.008.712-1.958,2.67-1.958h2.195v-.415c0-1.186-.712-1.78-1.958-1.78a3.483,3.483,0,0,0-2.254.831l-.415-.712a4.446,4.446,0,0,1,2.847-.949A2.452,2.452,0,0,1,643.113,329.769Zm-.949,2.195v-1.127h-2.136c-1.305,0-1.78.534-1.78,1.246,0,.83.593,1.305,1.72,1.305A2.081,2.081,0,0,0,642.164,331.964Z" transform="translate(-202.863 -30.478)" fill="#257d9e"/>
    <path id="Path_69807" data-name="Path 69807" d="M650.7,332.2c0-2.551,4.568-1.305,4.568-3.085,0-.771-.593-1.186-1.78-1.186a5,5,0,0,0-2.195.593l-.356-.712a5.123,5.123,0,0,1,2.551-.712c1.661,0,2.788.712,2.788,2.017,0,2.551-4.568,1.364-4.568,3.085,0,.771.771,1.186,1.958,1.186a4.641,4.641,0,0,0,2.551-.771l.356.712a4.976,4.976,0,0,1-2.907.89C651.946,334.1,650.7,333.507,650.7,332.2Z" transform="translate(-208.314 -30.478)" fill="#257d9e"/>
    <path id="Path_69808" data-name="Path 69808" d="M663.1,330.6a3.5,3.5,0,1,1,3.5,3.5A3.4,3.4,0,0,1,663.1,330.6Zm6.11,0a2.526,2.526,0,0,0-2.551-2.669,2.561,2.561,0,0,0-2.551,2.669,2.526,2.526,0,0,0,2.551,2.669A2.493,2.493,0,0,0,669.21,330.6Z" transform="translate(-213.359 -30.478)" fill="#257d9e"/>
    <path id="Path_69809" data-name="Path 69809" d="M685.941,330.6a3.317,3.317,0,0,1-3.441,3.5,2.917,2.917,0,0,1-2.61-1.364v3.856H679v-9.432h.89v1.364a3.065,3.065,0,0,1,2.669-1.424A3.337,3.337,0,0,1,685.941,330.6Zm-.89,0a2.526,2.526,0,0,0-2.551-2.669,2.561,2.561,0,0,0-2.551,2.669,2.526,2.526,0,0,0,2.551,2.669A2.493,2.493,0,0,0,685.051,330.6Z" transform="translate(-219.826 -30.478)" fill="#257d9e"/>
    <path id="Path_69810" data-name="Path 69810" d="M699.313,329.769v4.271h-.89v-1.127a2.618,2.618,0,0,1-2.373,1.186c-1.6,0-2.551-.831-2.551-2.017,0-1.008.712-1.958,2.669-1.958h2.195v-.415c0-1.186-.712-1.78-1.958-1.78a3.483,3.483,0,0,0-2.254.831l-.415-.712a4.446,4.446,0,0,1,2.847-.949A2.427,2.427,0,0,1,699.313,329.769Zm-.949,2.195v-1.127h-2.136c-1.305,0-1.78.534-1.78,1.246,0,.83.593,1.305,1.72,1.305A2.039,2.039,0,0,0,698.364,331.964Z" transform="translate(-225.725 -30.478)" fill="#257d9e"/>
    <path id="Path_69811" data-name="Path 69811" d="M198.337,268.918l-28.178-16.432a2.195,2.195,0,0,0-2.254,0l-28.178,16.432a2.264,2.264,0,0,0,0,3.915L167.9,289.266a2.661,2.661,0,0,0,1.127.3,2.454,2.454,0,0,0,1.127-.3l28.178-16.432a2.218,2.218,0,0,0,1.127-1.958A2.428,2.428,0,0,0,198.337,268.918Zm-29.364,16.313-24.618-14.356,24.618-14.356,24.618,14.356Zm24.618-6.466v4.152c0,.059-.059.178-.119.178l-23.254,13.525a2.53,2.53,0,0,1-2.432,0l-19.754-11.508c-.059-.059-.119-.119-.119-.178v-4.153a.218.218,0,0,1,.356-.178l20.585,11.983a.18.18,0,0,0,.237,0l24.085-14.059C193.354,278.469,193.591,278.588,193.591,278.766ZM166.244,265.6l-8.78,5.1a.228.228,0,0,0,0,.415l8.78,5.1c.059.059.119.119.119.178v4.152a.218.218,0,0,1-.356.178l-16.61-9.669a.228.228,0,0,1,0-.415l16.61-9.669a.218.218,0,0,1,.356.178V265.3A.349.349,0,0,1,166.244,265.6Zm22.186,5.517-16.551,9.669a.218.218,0,0,1-.356-.178v-4.152a.45.45,0,0,1,.119-.237l6.169-3.619-2.61-1.483a.228.228,0,0,1,0-.415l2.61-1.483-6.169-3.619c-.059-.059-.119-.119-.119-.178v-4.152a.261.261,0,0,1,.356-.237L188.43,270.7A.228.228,0,0,1,188.43,271.113Zm-15.957,0-2.195,1.246-1.186,2.669a.228.228,0,0,1-.415,0l-1.186-2.669h0l-2.136-1.246a.228.228,0,0,1,0-.415l3.441-2.017a.18.18,0,0,1,.237,0l3.441,2.017A.228.228,0,0,1,172.473,271.113Z" transform="translate(0 0)" fill="#257d9e"/>
  </g>
</svg>
